# AST/ASF file generated using VICON BodyLanguage
# -----------------------------------------------
:version 1.10
:name VICON
:units
  mass 1.0
  length 0.45
  angle deg
:documentation
   .ast/.asf automatically generated from VICON data using
   VICON BodyBuilder and BodyLanguage model FoxedUp or BRILLIANT.MOD
:root
   order TX TY TZ RX RY RZ
   axis XYZ
   position 0 0 0  
   orientation 0 0 0 
:bonedata
  begin
     id 1 
     name lhipjoint
     direction 0.573633 -0.743009 0.344793 
     length 2.46257 
     axis 0 0 0  XYZ
  end
  begin
     id 2 
     name lfemur
     direction 0.34202 -0.939693 0  
     length 7.3842  
     axis 0 0 20  XYZ
    dof rx ry rz
    limits (-160.0 20.0)
           (-70.0 70.0)
           (-60.0 70.0)
  end
  begin
     id 3 
     name ltibia
     direction 0.34202 -0.939693 0   
     length 7.50407   
     axis 0 0 20   XYZ
    dof rx
    limits (-10.0 170.0)
  end
  begin
     id 4 
     name lfoot
     direction 0.110749 -0.304281 0.946123   
     length 1.95925   
     axis -90 7.62852e-016 20   XYZ
    dof rx rz
    limits (-45.0 90.0)
           (-70.0 20.0)
  end
  begin
     id 5 
     name ltoes
     direction 1.53554e-011 -4.21843e-011 1   
     length 0.978318   
     axis -90 7.62852e-016 20   XYZ
    dof rx
    limits (-90.0 20.0)
  end
  begin
     id 6 
     name rhipjoint
     direction -0.488109 -0.791693 0.367385   
     length 2.31113  
     axis 0 0 0  XYZ 
  end
  begin
     id 7 
     name rfemur
     direction -0.34202 -0.939693 0   
     length 7.40965   
     axis 0 0 -20   XYZ
    dof rx ry rz
    limits (-160.0 20.0)
           (-70.0 70.0)
           (-70.0 60.0)
  end
  begin
     id 8 
     name rtibia
     direction -0.34202 -0.939693 0   
     length 7.55548   
     axis 0 0 -20   XYZ
    dof rx
    limits (-10.0 170.0)
 end
 begin
     id 9 
     name rfoot
     direction -0.127594 -0.350561 0.927808   
     length 2.07199  
     axis -90 -7.62852e-016 -20   XYZ
    dof rx rz
    limits (-45.0 90.0)
           (-20.0 70.0)
  end
  begin
     id 10 
     name rtoes
     direction -1.53542e-011 -4.21909e-011 1   
     length 1.02667   
     axis -90 -7.62852e-016 -20   XYZ
    dof rx
    limits (-90.0 20.0)
  end
  begin
     id 11 
     name lowerback
     direction -0.0103342 0.997298 -0.0727278   
     length 2.02836   
     axis 0 0 0   XYZ
    dof rx ry rz
    limits (-20.0 45.0)
           (-30.0 30.0)
           (-30.0 30.0)
  end
  begin
     id 12 
     name upperback
     direction 0.0171146 0.999786 -0.011606   
     length 2.03179   
     axis 0 0 0   XYZ
    dof rx ry rz
    limits (-20.0 45.0)
           (-30.0 30.0)
           (-30.0 30.0)
  end
  begin
     id 13 
     name thorax
     direction 0.0216927 0.999513 0.0224343   
     length 2.03882   
     axis 0 0 0   XYZ
    dof rx ry rz
    limits (-20.0 45.0)
           (-30.0 30.0)
           (-30.0 30.0)
  end
  begin
     id 14 
     name lowerneck
     direction 0.000989287 0.993907 0.110221   
     length 1.75428   
     axis 0 0 0   XYZ
    dof rx ry rz
    limits (-20.0 45.0)
           (-30.0 30.0)
           (-30.0 30.0)
  end
  begin
     id 15 
     name upperneck
     direction -0.0172474 0.994813 -0.100253   
     length 1.77058   
     axis 0 0 0   XYZ
    dof rx ry rz
    limits (-20.0 45.0)
           (-30.0 30.0)
           (-30.0 30.0)
  end
  begin
     id 16
     name head
     direction -0.00486455 0.99894 -0.0457663  
     length 1.77427  
     axis 0 0 0   XYZ
    dof rx ry rz
    limits (-20.0 45.0)
           (-30.0 30.0)
           (-30.0 30.0)
  end
  begin
     id 17 
     name lclavicle
     direction 0.927314 0.333734 -0.169441  
     length 3.97584  
     axis 0 0 0   XYZ
    dof ry rz
    limits (-20.0 10.0)
           (0.0 20.0)
  end
  begin
     id 18 
     name lhumerus
     direction 1 -4.48965e-011 -3.25313e-028   
     length 4.76468   
     axis 180 -30 -90   XYZ
    dof rx ry rz
    limits (-60.0 90.0)
           (-90.0 90.0)
           (-90.0 90.0)
  end
  begin
     id 19
     name lradius
     direction 1 -4.48969e-011 -2.8465e-028   
     length 3.52712   
     axis -180 -30 -90   XYZ
    dof rx
    limits (-10.0 170.0)
  end
  begin
     id 20
     name lwrist
     direction 1 -4.4896e-011 -7.78665e-028   
     length 1.76356   
     axis 1.91374e-015 90 90   XYZ
    dof ry
    limits (-180.0 0.0)
 end
  begin
     id 21 
     name lhand
     direction 1 -4.48959e-011 -1.55733e-027   
     length 0.859564   
     axis 9.9371e-016 90 90   XYZ
    dof rx rz
    limits (-90.0 90.0)
           (-45.0 45.0)
  end
  begin
     id 22 
     name lfingers
     direction 1 -4.48965e-011 -3.11466e-027   
     length 0.693002   
     axis 1.98742e-015 90 90   XYZ
    dof rx
    limits (0.0 90.0)
  end
  begin
     id 23
     name lthumb
     direction 0.707107 -6.34948e-011 0.707107   
     length 0.995017   
     axis -90 45 2.85299e-015   XYZ
    dof rx rz
    limits (-45.0 45.0)
           (-45.0 45.0)
  end
  begin
     id 24 
     name rclavicle
     direction -0.899388 0.348209 -0.264294   
     length 3.68366  
     axis 0 0 0   XYZ 
    dof ry rz
    limits (-10.0 20.0)
           (-20.0 0.0)
  end
  begin
     id 25 
     name rhumerus
     direction -1 -4.48965e-011 -3.01536e-027  
     length 4.90577   
     axis 180 30 90   XYZ
    dof rx ry rz
    limits (-90.0 60.0)
           (-90.0 90.0)
           (-90.0 90.0)
  end
  begin
     id 26 
     name rradius
     direction -1 -4.48966e-011 3.93291e-027   
     length 3.42692   
     axis -180 30 90   XYZ
    dof rx
    limits (-10.0 170.0)
  end
  begin
     id 27 
     name rwrist
     direction -1 -4.48969e-011 -7.78665e-028   
     length 1.71346   
     axis 1.91374e-015 -90 -90   XYZ
    dof ry
    limits (-180.0 0.0)
  end
  begin
     id 28
     name rhand
     direction -1 -4.48967e-011 -1.55733e-027   
     length 0.740957   
     axis 9.9371e-016 -90 -90   XYZ
    dof rx rz
    limits (-90.0 90.0)
           (-45.0 45.0)
  end
  begin
     id 29
     name rfingers
     direction -1 -4.48949e-011 -3.11466e-027   
     length 0.597378   
     axis 1.98742e-015 -90 -90   XYZ
    dof rx
    limits (0.0 90.0)
  end
  begin
     id 30
     name rthumb
     direction -0.707107 -6.34931e-011 0.707107   
     length 0.857719   
     axis -90 -45 -2.85299e-015   XYZ
    dof rx rz
    limits (-45.0 45.0)
           (-45.0 45.0)
  end
:hierarchy
  begin
    root lhipjoint rhipjoint lowerback
    lhipjoint lfemur
    lfemur ltibia
    ltibia lfoot
    lfoot ltoes
    rhipjoint rfemur
    rfemur rtibia
    rtibia rfoot
    rfoot rtoes
    lowerback upperback
    upperback thorax
    thorax lowerneck lclavicle rclavicle
    lowerneck upperneck
    upperneck head
    lclavicle lhumerus
    lhumerus lradius
    lradius lwrist
    lwrist lhand lthumb
    lhand lfingers
    rclavicle rhumerus
    rhumerus rradius
    rradius rwrist
    rwrist rhand rthumb
    rhand rfingers
  end

#!OML:ASF E:\I on waltz\AllaLogoMonkeySwing\Project 1\Capture day 1\Session 1\Subject1.ASF
:FULLY-SPECIFIED
:DEGREES
455
root -1.04275 21.6029 -1.18012 71.4436 84.9497 67.7126
lowerback 16.6661 5.32726 3.76365
upperback -0.021957 7.97296 1.47215
thorax -9.03902 3.7061 -2.42281
lowerneck -12.496 11.8006 7.89509
upperneck 9.25137 16.6857 -14.0497
head 6.7491 7.55962 -3.92045
rclavicle -5.58585e-014 0
rhumerus -43.1412 4.02617 -80.7989
rradius 59.385
rwrist -1.34918
rhand -11.6563 -27.101
rfingers 7.12502
rthumb 14.3881 -56.5823
lclavicle -5.58585e-014 0
lhumerus -50.3642 2.34659 67.944
lradius 70.2575
lwrist 14.9087
lhand -10.8834 -20.2292
lfingers 7.12502
lthumb 15.1328 9.19753
rfemur -6.43082 -16.6512 15.5838
rtibia 34.2359
rfoot 14.7498 -7.19484
rtoes -0.294531
lfemur -13.3559 -4.75677 -16.5313
ltibia 19.8302
lfoot 2.91448 -12.5126
ltoes -43.0235
456
root -1.05179 22.0219 -0.986177 147.376 82.3082 144.988
lowerback 17.1878 4.66765 3.94195
upperback -0.0869391 7.20835 1.76476
thorax -9.46477 3.32596 -2.09146
lowerneck -12.1618 11.6857 7.5528
upperneck 10.8713 16.8697 -13.9199
head 7.18871 7.61186 -3.79717
rclavicle -9.74045e-014 7.4743e-014
rhumerus -44.8536 2.83027 -79.0987
rradius 59.1179
rwrist -1.95647
rhand -10.5959 -27.3704
rfingers 7.12502
rthumb 15.4097 -56.776
lclavicle -9.74045e-014 7.4743e-014
lhumerus -48.4965 3.29202 66.6119
lradius 68.4039
lwrist 13.0262
lhand -10.8978 -20.827
lfingers 7.12502
lthumb 15.1189 8.60083
rfemur -6.80747 -18.5118 15.9327
rtibia 38.3342
rfoot 12.3488 -5.11084
rtoes 2.3295
lfemur -12.9142 -5.40888 -15.7704
ltibia 23.5953
lfoot 0.376307 -11.3831
ltoes -44.7586
457
root -1.06054 22.3879 -0.773236 167.2 75.2233 165.825
lowerback 17.5358 4.0311 4.15198
upperback -0.100743 6.49564 2.20866
thorax -9.74627 2.98532 -1.59411
lowerneck -11.9184 11.4986 6.76341
upperneck 11.7289 16.784 -13.1783
head 7.27273 7.5801 -3.46369
rclavicle -7.95139e-014 -7.95139e-015
rhumerus -46.5374 1.73951 -77.2174
rradius 59.1316
rwrist -2.19494
rhand -9.75176 -27.4513
rfingers 7.12502
rthumb 16.2227 -56.7925
lclavicle -7.95139e-014 -7.95139e-015
lhumerus -46.7357 5.02284 65.0893
lradius 66.8563
lwrist 10.9285
lhand -11.5967 -22.292
lfingers 7.12502
lthumb 14.4457 7.18526
rfemur -7.42798 -20.9299 16.8502
rtibia 41.4784
rfoot 10.3473 -4.11468
rtoes 5.31814
lfemur -13.2668 -6.45318 -14.0702
ltibia 27.1381
lfoot -0.0161567 -9.82496
ltoes -43.7775
458
root -1.04366 22.7191 -0.556332 174.16 67.8162 173.778
lowerback 17.7542 3.37955 4.4889
upperback 0.0650029 5.79642 2.73602
thorax -9.74527 2.66672 -1.05337
lowerneck -11.61 11.2738 6.56881
upperneck 11.7793 16.6363 -13.4964
head 7.23523 7.50839 -3.56982
rclavicle -2.06736e-014 7.95139e-015
rhumerus -48.0534 0.944582 -75.3394
rradius 59.3327
rwrist -2.74646
rhand -9.94044 -27.6591
rfingers 7.12502
rthumb 16.041 -57.0151
lclavicle -2.06736e-014 7.95139e-015
lhumerus -45.1952 7.16961 63.6875
lradius 65.793
lwrist 10.8377
lhand -13.6756 -22.5536
lfingers 7.12502
lthumb 12.4419 7.05603
rfemur -8.14575 -23.4256 18.1029
rtibia 44.1351
rfoot 9.0281 -4.26885
rtoes 6.57976
lfemur -13.887 -7.12748 -11.8253
ltibia 30.3982
lfoot -0.00447477 -8.01274
ltoes -42.8531
459
root -1.00475 23.0172 -0.343213 176.893 60.6247 177.213
lowerback 17.7124 2.81164 4.49494
upperback 0.28466 5.10095 3.0847
thorax -9.54109 2.36832 -0.500792
lowerneck -11.8082 11.1771 6.53645
upperneck 12.2174 16.5997 -13.5026
head 7.40543 7.47211 -3.55466
rclavicle -3.26007e-014 -2.8625e-014
rhumerus -49.4534 0.252716 -73.5698
rradius 59.4332
rwrist -3.84998
rhand -10.5474 -27.8061
rfingers 7.12502
rthumb 15.4565 -57.2082
lclavicle -3.26007e-014 -2.8625e-014
lhumerus -43.9064 9.33419 62.1793
lradius 65.1204
lwrist 11.5214
lhand -15.3558 -22.4235
lfingers 7.12502
lthumb 10.8216 7.27772
rfemur -9.11043 -25.4232 18.9451
rtibia 45.6547
rfoot 8.64808 -4.55529
rtoes 7.97697
lfemur -14.6088 -7.16448 -9.6885
ltibia 33.0485
lfoot 0.082322 -6.68929
ltoes -41.2262
460
root -0.950268 23.2755 -0.165635 176.784 54.2969 177.332
lowerback 17.4401 2.63624 3.6403
upperback 0.524206 4.65179 2.88321
thorax -9.18489 2.20247 -0.109473
lowerneck -11.8694 10.7728 7.64683
upperneck 12.2741 16.0675 -14.4718
head 7.56079 7.20148 -4.0993
rclavicle 1.06549e-013 1.90833e-014
rhumerus -50.8197 -0.933886 -71.8609
rradius 58.8895
rwrist -4.61722
rhand -11.0465 -27.8093
rfingers 7.12502
rthumb 14.9757 -57.2478
lclavicle 1.06549e-013 1.90833e-014
lhumerus -42.6779 11.033 60.4125
lradius 64.5783
lwrist 12.1267
lhand -16.069 -22.0157
lfingers 7.12502
lthumb 10.1336 7.72025
rfemur -9.96669 -25.6561 18.3583
rtibia 46.0953
rfoot 9.23303 -6.33442
rtoes 9.59716
lfemur -15.1141 -6.27282 -9.29176
ltibia 35.1663
lfoot 0.829494 -3.44556
ltoes -41.0227
461
root -0.892385 23.4964 -0.00261661 176.745 48.4159 177.388
lowerback 17.2886 2.56892 2.95235
upperback 0.696741 4.39423 2.66757
thorax -8.94718 2.11247 0.118058
lowerneck -11.735 10.3 7.11276
upperneck 12.1998 15.2262 -13.2425
head 7.26149 6.86067 -3.75574
rclavicle 1.07344e-013 -2.8625e-014
rhumerus -52.0181 -2.20813 -69.9945
rradius 57.5976
rwrist -4.85204
rhand -11.2983 -28.2677
rfingers 7.12502
rthumb 14.7331 -57.7241
lclavicle 1.07344e-013 -2.8625e-014
lhumerus -41.5024 12.1106 59.0611
lradius 63.5426
lwrist 11.4563
lhand -16.1846 -22.0453
lfingers 7.12502
lthumb 10.0221 7.69609
rfemur -10.9561 -25.3063 17.6139
rtibia 46.5468
rfoot 8.90794 -7.54829
rtoes 10.8871
lfemur -15.6818 -5.09079 -8.84725
ltibia 36.8352
lfoot 2.2385 -0.990776
ltoes -40.0889
462
root -0.828495 23.6735 0.142913 176.698 42.8663 177.348
lowerback 17.1565 2.50961 2.26382
upperback 0.872477 4.1657 2.54427
thorax -8.72148 2.0376 0.437272
lowerneck -11.9599 9.8892 6.78686
upperneck 12.8778 14.6588 -12.483
head 7.36879 6.59637 -3.52568
rclavicle 6.16232e-015 -9.54166e-015
rhumerus -53.0086 -2.90899 -68.1441
rradius 55.9344
rwrist -4.9673
rhand -11.2519 -28.9701
rfingers 7.12502
rthumb 14.7778 -58.4232
lclavicle 6.16232e-015 -9.54166e-015
lhumerus -40.475 13.1595 57.8512
lradius 62.3756
lwrist 10.8257
lhand -15.1247 -21.7676
lfingers 7.12502
lthumb 11.0444 7.92184
rfemur -11.4647 -22.9979 17.018
rtibia 46.0626
rfoot 8.47742 -9.37554
rtoes 13.683
lfemur -16.0402 -3.71421 -8.51967
ltibia 38.1132
lfoot 3.43005 3.43109
ltoes -31.9666
463
root -0.758962 23.802 0.264342 176.559 37.4301 177.122
lowerback 17.1394 2.37391 1.42755
upperback 0.90704 3.81778 2.44931
thorax -8.72098 1.90415 0.891539
lowerneck -11.9476 9.56976 6.54577
upperneck 13.5921 14.2307 -11.7583
head 7.4763 6.41485 -3.30928
rclavicle -3.95581e-014 4.13472e-014
rhumerus -54.1153 -2.97802 -66.5182
rradius 54.1858
rwrist -5.25554
rhand -11.2295 -29.5153
rfingers 7.12502
rthumb 14.7994 -58.9669
lclavicle -3.95581e-014 4.13472e-014
lhumerus -39.9524 13.783 56.6831
lradius 61.2055
lwrist 10.1905
lhand -14.9566 -21.3935
lfingers 7.12502
lthumb 11.2066 8.28721
rfemur -11.887 -20.5213 15.88
rtibia 45.7747
rfoot 7.83462 -9.53219
rtoes 15.4401
lfemur -16.2256 -1.99121 -8.72149
ltibia 38.9763
lfoot 4.44844 6.34502
ltoes -30.2621
464
root -0.679955 23.8804 0.361602 176.439 31.9256 177.08
lowerback 16.9478 2.12673 0.803912
upperback 1.05936 3.37329 2.42625
thorax -8.47609 1.72303 1.33581
lowerneck -11.5098 9.2287 5.92494
upperneck 13.6467 13.7072 -10.7892
head 7.24626 6.22259 -2.99393
rclavicle 3.29983e-014 3.65764e-014
rhumerus -55.006 -3.00489 -65.0127
rradius 52.2438
rwrist -5.64856
rhand -11.217 -29.7996
rfingers 7.12502
rthumb 14.8115 -59.2503
lclavicle 3.29983e-014 3.65764e-014
lhumerus -39.5084 14.1824 55.6491
lradius 60.0795
lwrist 9.13531
lhand -14.5147 -21.0206
lfingers 7.12502
lthumb 11.6328 8.63652
rfemur -11.5095 -17.3003 14.8178
rtibia 44.9331
rfoot 6.92339 -8.53105
rtoes 14.5861
lfemur -16.4079 -0.259937 -8.74702
ltibia 40.1258
lfoot 4.64315 8.11512
ltoes -27.5636
465
root -0.60088 23.9128 0.436606 176.428 26.3845 177.268
lowerback 16.6479 1.79321 0.402507
upperback 1.24331 2.87596 2.52076
thorax -8.12171 1.5114 1.79394
lowerneck -11.1125 8.68449 6.53537
upperneck 13.832 13.0577 -11.427
head 7.26534 5.92069 -3.38742
rclavicle 9.34288e-015 -5.24792e-014
rhumerus -55.8024 -2.96219 -63.5747
rradius 50.2324
rwrist -5.86377
rhand -10.8933 -29.7723
rfingers 7.12502
rthumb 15.1233 -59.1998
lclavicle 9.34288e-015 -5.24792e-014
lhumerus -39.1654 14.08 55.079
lradius 59.3075
lwrist 10.2225
lhand -14.3381 -20.3597
lfingers 7.12502
lthumb 11.8031 9.28769
rfemur -11.1945 -14.7604 13.9031
rtibia 44.3504
rfoot 6.57656 -6.42482
rtoes 11.3713
lfemur -15.9828 0.696852 -8.72399
ltibia 40.3983
lfoot 5.30669 9.43063
ltoes -26.4697
